<?xml version="1.0" encoding="UTF-8" standalone="no"?>
<!DOCTYPE svg PUBLIC "-//W3C//DTD SVG 1.1//EN" "http://www.w3.org/Graphics/SVG/1.1/DTD/svg11.dtd">
<svg version="1.1" xmlns="http://www.w3.org/2000/svg" xmlns:xlink="http://www.w3.org/1999/xlink" preserveAspectRatio="xMidYMid meet" viewBox="0 0 640 640" width="640" height="640"><defs><path d="M139.09 117.84L446.93 117.84L446.93 533.65L139.09 533.65L139.09 117.84Z" id="b7d6gE7jRA"></path><path d="M290.14 273.48L290.14 294.16L276.35 309.09L254.53 312.53L237.3 322.87L245.34 341.25L267.16 341.25L287.84 341.25L308.51 340.1L328.04 335.51L348.72 333.21L338.38 315.98L318.85 311.39L305.07 296.45L305.07 275.78L291.28 260.84L290.14 281.52" id="c3n7pOTuL"></path><path d="M298.18 374.56L315.41 361.93L334.93 352.74L355.61 348.14L377.43 346.99L396.96 351.59L403.85 371.11L403.85 391.79L398.11 412.47L388.92 431.99L376.28 448.07L355.61 451.52L333.78 451.52L313.11 452.67L292.43 452.67L271.76 452.67L249.93 448.07L230.41 443.48L209.73 440.03L189.05 433.14L171.82 419.36L163.78 400.98L162.64 380.3L172.97 363.07L186.76 348.14L207.43 345.84L228.11 349.29L248.78 355.03L268.31 359.63L287.84 365.37" id="a2fm3aVpeO"></path><path d="M320 389.49L299.32 389.49L277.5 386.05L257.97 381.45L238.45 376.86L216.62 372.26L203.99 388.34L202.84 409.02L218.92 421.66L239.59 428.55L259.12 435.44L279.8 438.89L300.47 438.89L321.15 438.89L342.97 438.89L364.8 438.89L385.47 434.29L388.92 413.61L384.32 394.09L362.5 387.2L341.82 384.9L321.15 384.9L301.62 390.64" id="d5nXustRdo"></path><path d="M235 378.01L229.26 397.53L226.96 418.21" id="atG1jmLow"></path><path d="M268.31 388.34L264.86 409.02L263.72 429.7" id="dCRNLEaTz"></path><path d="M313.11 386.05L313.11 406.72L313.11 427.4" id="b1WOa3iMAG"></path><path d="M360.2 390.64L360.2 411.32L362.5 431.99" id="dD8M7of6t"></path><path d="M205.14 391.79L226.96 395.24L247.64 399.83L268.31 403.28L288.99 406.72L308.51 411.32L329.19 413.61L349.86 417.06L370.54 418.21" id="a99zPTAG6"></path><path d="M391.22 418.21L370.54 419.36" id="b2nA7Us2vm"></path><path d="M271.76 467.6L259.12 483.68L246.49 499.76L233.85 515.84L221.22 531.93L208.58 548.01L225.81 537.67L246.49 531.93L243.04 552.6L244.19 573.28L263.72 568.68L266.01 589.36L280.95 603.14L298.18 584.76L305.07 564.09L315.41 582.47L328.04 598.55L334.93 579.02L330.34 559.49L351.01 557.2L372.84 566.39L392.36 572.13L390.07 551.45L377.43 535.37L359.05 527.33L367.09 508.95L346.42 502.06L328.04 494.02L314.26 477.94L297.03 464.16L276.35 465.3" id="a1KcvgBsO"></path><path d="M424.18 194.22C424.18 215.14 405.91 232.13 383.41 232.13C360.9 232.13 342.63 215.14 342.63 194.22C342.63 173.3 360.9 156.32 383.41 156.32C405.91 156.32 424.18 173.3 424.18 194.22Z" id="cPAokYniY"></path><path d="M346.42 173.55L334.93 190.78" id="c8wKcZb83"></path><path d="M1314.73 144.83L1294.05 142.53L1298.65 162.06L1299.8 182.74L1312.43 199.97L1336.55 209.16L1357.23 210.3L1376.76 203.41L1395.14 195.37L1404.32 176.99L1407.77 156.32L1390.54 144.83" id="aGPOYrPEA"></path><path d="M343.2 177.11L340.91 197.78L348.95 216.16L365.03 228.8L385.7 232.24L406.38 231.09L423.61 219.61L427.05 198.93L422.46 179.41L436.24 194.34L432.8 215.01L424.76 233.39L406.38 242.58L385.7 243.73L362.73 239.14L345.5 227.65L336.31 209.27L330.57 189.74L344.35 174.81" id="a8fzOy1hh"></path><path d="M246.03 212.95C246.03 229.94 227.7 243.73 205.14 243.73C182.57 243.73 164.24 229.94 164.24 212.95C164.24 195.96 182.57 182.16 205.14 182.16C227.7 182.16 246.03 195.96 246.03 212.95Z" id="b2awHLxIuR"></path><path d="M166.31 206.97L146.78 211.57L155.97 229.95L168.61 246.03L188.14 252.92L208.81 256.36L229.49 254.07L246.72 242.58L253.61 223.05L254.76 202.38L239.82 216.16L244.42 196.64L240.97 217.31L229.49 234.54L211.11 243.73L190.43 243.73L172.05 234.54L162.86 216.16" id="dgYBeVOD6"></path><path d="M261.65 154.14L240.97 154.14L220.3 154.14L199.62 154.14L178.95 154.14L157.12 150.69L135.3 144.95L119.22 132.31L101.99 119.68L103.14 140.35L103.14 161.03L98.54 181.7L119.22 178.26L137.59 187.45L157.12 194.34L176.65 201.23L197.32 203.53L218 205.82L238.68 205.82L259.35 202.38L278.88 197.78L285.77 178.26L276.58 159.88L257.05 154.14" id="g1sHfdMyGZ"></path><path d="M303.92 169.07L321.15 157.58L338.38 147.24L355.61 136.91L375.14 130.01L395.81 128.86L416.49 127.72L437.16 127.72L457.84 131.16L478.51 132.31L483.11 151.84L481.96 172.51L462.43 179.41L441.76 175.96L421.08 173.66L401.55 169.07L380.88 165.62L361.35 171.36L342.97 180.55L328.04 194.34L310.81 205.82L301.62 187.45L302.77 166.77" id="b1dX9TKJO"></path><path d="M1313.81 387.31L1305.77 367.78L1291.99 351.7L1281.65 334.47L1271.31 314.95L1269.01 294.27L1279.35 277.04L1300.03 278.19L1306.92 297.72L1316.11 316.09L1321.85 336.77L1326.45 356.3L1332.19 375.82" id="a29mipXlFx"></path><path d="M1354.93 1193.66L1354.93 1170.69L1349.19 1148.86L1340 1128.19L1329.66 1108.66L1319.32 1091.43L1311.28 1073.05L1331.96 1071.91L1346.89 1085.69L1359.53 1101.77L1368.72 1120.15L1376.76 1138.53L1384.8 1156.91L1393.99 1175.28L1405.47 1192.51" id="a1hbGIqNNQ"></path><path d="M164.36 127.72L155.17 109.34L137.94 95.55L123.01 81.77L111.52 64.54L104.63 45.01L96.59 25.49L89.7 5.96L110.37 5.96L129.9 12.85L145.98 25.49L160.91 39.27L166.66 58.8L171.25 79.47L176.99 99L176.99 120.82" id="b3JPJ6Vhea"></path><path d="M634.16 934.07L634.16 912.24L634.16 890.42L631.86 864L629.56 843.32L626.11 822.65L623.82 801.97L624.97 781.3L644.49 788.19L651.39 807.72L664.02 823.8L681.25 836.43L682.4 857.11L682.4 877.78L680.1 898.46L672.06 877.78" id="c7HvW9PV"></path><path d="M225.24 128.86L217.2 110.49L206.86 90.96L196.52 72.58L186.18 55.35L180.44 34.68L179.29 14L188.48 -5.53L199.97 -26.2L220.64 -21.61L233.28 -5.53L250.51 7.11L257.4 26.64L251.66 46.16L249.36 67.99L244.76 87.51L239.02 107.04L230.98 125.42" id="b5PzRKnJfr"></path><path d="M306.79 133.46L299.9 113.93L291.86 95.55L288.41 74.88L289.56 54.2L297.6 35.82L307.94 17.45L320.57 1.36L335.51 -12.42L352.74 -23.91L367.67 -10.12L368.82 10.55L356.18 26.64L345.84 43.86L338.95 63.39L334.36 82.92L326.32 102.45L315.98 119.68" id="aXFwTXXDL"></path><path d="M394.09 119.68L391.79 99L389.49 76.03L389.49 55.35L391.79 33.53L407.87 20.89L427.4 11.7L446.93 3.66L444.63 24.34L443.48 45.01L437.74 64.54L435.44 85.22L428.55 104.74L411.32 117.38" id="c4gHbcPHkC"></path></defs><g><g><g><use xlink:href="#b7d6gE7jRA" opacity="1" fill="#863104" fill-opacity="1"></use></g><g><use xlink:href="#c3n7pOTuL" opacity="1" fill="#895915" fill-opacity="1"></use><g><use xlink:href="#c3n7pOTuL" opacity="1" fill-opacity="0" stroke="#000000" stroke-width="1" stroke-opacity="1"></use></g></g><g><use xlink:href="#a2fm3aVpeO" opacity="1" fill="#890e29" fill-opacity="1"></use><g><use xlink:href="#a2fm3aVpeO" opacity="1" fill-opacity="0" stroke="#000000" stroke-width="1" stroke-opacity="1"></use></g></g><g><use xlink:href="#d5nXustRdo" opacity="1" fill="#c9a2a6" fill-opacity="1"></use><g><use xlink:href="#d5nXustRdo" opacity="1" fill-opacity="0" stroke="#000000" stroke-width="1" stroke-opacity="1"></use></g></g><g><g><use xlink:href="#atG1jmLow" opacity="1" fill-opacity="0" stroke="#000000" stroke-width="1" stroke-opacity="1"></use></g></g><g><g><use xlink:href="#dCRNLEaTz" opacity="1" fill-opacity="0" stroke="#000000" stroke-width="1" stroke-opacity="1"></use></g></g><g><g><use xlink:href="#b1WOa3iMAG" opacity="1" fill-opacity="0" stroke="#000000" stroke-width="1" stroke-opacity="1"></use></g></g><g><g><use xlink:href="#dD8M7of6t" opacity="1" fill-opacity="0" stroke="#000000" stroke-width="1" stroke-opacity="1"></use></g></g><g><g><use xlink:href="#a99zPTAG6" opacity="1" fill-opacity="0" stroke="#000000" stroke-width="1" stroke-opacity="1"></use></g></g><g><g><use xlink:href="#b2nA7Us2vm" opacity="1" fill-opacity="0" stroke="#000000" stroke-width="1" stroke-opacity="1"></use></g></g><g><use xlink:href="#a1KcvgBsO" opacity="1" fill="#056019" fill-opacity="1"></use><g><use xlink:href="#a1KcvgBsO" opacity="1" fill-opacity="0" stroke="#000000" stroke-width="1" stroke-opacity="1"></use></g></g><g><use xlink:href="#cPAokYniY" opacity="1" fill="#9e860b" fill-opacity="1"></use></g><g><g><use xlink:href="#c8wKcZb83" opacity="1" fill-opacity="0" stroke="#000000" stroke-width="1" stroke-opacity="1"></use></g></g><g><use xlink:href="#aGPOYrPEA" opacity="1" fill="#1dbc12" fill-opacity="1"></use><g><use xlink:href="#aGPOYrPEA" opacity="1" fill-opacity="0" stroke="#000000" stroke-width="1" stroke-opacity="1"></use></g></g><g><use xlink:href="#a8fzOy1hh" opacity="1" fill="#1ca711" fill-opacity="1"></use><g><use xlink:href="#a8fzOy1hh" opacity="1" fill-opacity="0" stroke="#000000" stroke-width="1" stroke-opacity="1"></use></g></g><g><use xlink:href="#b2awHLxIuR" opacity="1" fill="#ad9729" fill-opacity="1"></use></g><g><use xlink:href="#dgYBeVOD6" opacity="1" fill="#0ba806" fill-opacity="1"></use><g><use xlink:href="#dgYBeVOD6" opacity="1" fill-opacity="0" stroke="#000000" stroke-width="1" stroke-opacity="1"></use></g></g><g><use xlink:href="#g1sHfdMyGZ" opacity="1" fill="#772201" fill-opacity="1"></use><g><use xlink:href="#g1sHfdMyGZ" opacity="1" fill-opacity="0" stroke="#000000" stroke-width="1" stroke-opacity="1"></use></g></g><g><use xlink:href="#b1dX9TKJO" opacity="1" fill="#721e08" fill-opacity="1"></use><g><use xlink:href="#b1dX9TKJO" opacity="1" fill-opacity="0" stroke="#000000" stroke-width="1" stroke-opacity="1"></use></g></g><g><g><use xlink:href="#a29mipXlFx" opacity="1" fill-opacity="0" stroke="#000000" stroke-width="1" stroke-opacity="1"></use></g></g><g><use xlink:href="#a1hbGIqNNQ" opacity="1" fill="#0d93c5" fill-opacity="1"></use><g><use xlink:href="#a1hbGIqNNQ" opacity="1" fill-opacity="0" stroke="#000000" stroke-width="1" stroke-opacity="1"></use></g></g><g><use xlink:href="#b3JPJ6Vhea" opacity="1" fill="#4909a7" fill-opacity="1"></use><g><use xlink:href="#b3JPJ6Vhea" opacity="1" fill-opacity="0" stroke="#000000" stroke-width="1" stroke-opacity="1"></use></g></g><g><g><use xlink:href="#c7HvW9PV" opacity="1" fill-opacity="0" stroke="#000000" stroke-width="1" stroke-opacity="1"></use></g></g><g><use xlink:href="#b5PzRKnJfr" opacity="1" fill="#f1f503" fill-opacity="1"></use><g><use xlink:href="#b5PzRKnJfr" opacity="1" fill-opacity="0" stroke="#000000" stroke-width="1" stroke-opacity="1"></use></g></g><g><use xlink:href="#aXFwTXXDL" opacity="1" fill="#f86801" fill-opacity="1"></use><g><use xlink:href="#aXFwTXXDL" opacity="1" fill-opacity="0" stroke="#000000" stroke-width="1" stroke-opacity="1"></use></g></g><g><use xlink:href="#c4gHbcPHkC" opacity="1" fill="#ff0065" fill-opacity="1"></use><g><use xlink:href="#c4gHbcPHkC" opacity="1" fill-opacity="0" stroke="#000000" stroke-width="1" stroke-opacity="1"></use></g></g></g></g></svg>